<svg width="749" height="87" viewBox="0 0 749 87" fill="none" xmlns="http://www.w3.org/2000/svg">
<path d="M737.196 66.8396C734.236 66.8396 731.982 65.9996 730.436 64.3196C728.889 62.6396 728.116 60.2263 728.116 57.0797V26.9996H722.916L722.676 25.5596L734.676 13.6396L736.236 13.7996V24.0396H747.676L746.996 26.9996H736.236V56.2796C736.236 60.653 737.809 62.8396 740.956 62.8396C742.022 62.8396 743.076 62.5596 744.116 61.9996C745.182 61.4396 746.089 60.6663 746.836 59.6796L748.236 60.9196C747.009 62.733 745.409 64.173 743.436 65.2396C741.489 66.3063 739.409 66.8396 737.196 66.8396Z" fill="#451914"/>
<path d="M700.685 66.8402C697.058 66.8402 693.832 65.9602 691.005 64.2002C688.205 62.4136 686.005 59.9469 684.405 56.8002C682.832 53.6269 682.045 49.9736 682.045 45.8402C682.045 41.4669 682.912 37.5869 684.645 34.2002C686.405 30.7869 688.818 28.1069 691.885 26.1602C694.978 24.2136 698.512 23.2402 702.485 23.2402C705.285 23.2402 707.792 23.7069 710.005 24.6402C712.218 25.5469 713.965 26.7602 715.245 28.2802C716.552 29.7736 717.205 31.4136 717.205 33.2002C717.205 34.6669 716.832 35.8002 716.085 36.6002C715.338 37.4002 714.325 37.8002 713.045 37.8002C711.658 37.8002 710.618 37.3869 709.925 36.5602C709.232 35.7336 708.778 34.4402 708.565 32.6802C708.272 30.0402 707.698 28.2669 706.845 27.3602C705.992 26.4536 704.618 26.0002 702.725 26.0002C698.938 26.0002 695.992 27.6269 693.885 30.8802C691.805 34.1069 690.765 38.4002 690.765 43.7602C690.765 49.1469 691.858 53.2802 694.045 56.1602C696.232 59.0402 699.338 60.4802 703.365 60.4802C706.032 60.4802 708.418 59.9869 710.525 59.0002C712.632 58.0136 714.512 56.3736 716.165 54.0802L717.765 55.0002C716.298 58.7869 714.098 61.7069 711.165 63.7602C708.232 65.8136 704.738 66.8402 700.685 66.8402Z" fill="#451914"/>
<path d="M656.718 66.8402C652.852 66.8402 649.452 65.9602 646.518 64.2002C643.612 62.4136 641.345 59.9336 639.718 56.7602C638.118 53.5602 637.318 49.8669 637.318 45.6802C637.318 41.2269 638.212 37.3202 639.998 33.9602C641.812 30.6002 644.332 27.9736 647.558 26.0802C650.812 24.1869 654.572 23.2402 658.838 23.2402C664.118 23.2402 668.158 24.7736 670.958 27.8402C673.785 30.9069 675.252 35.4002 675.358 41.3202L674.798 41.8002H643.798V39.4802L666.198 38.6802C666.385 37.9869 666.478 36.9336 666.478 35.5202C666.478 29.1202 663.665 25.9202 658.038 25.9202C654.172 25.9202 651.185 27.4402 649.078 30.4802C646.998 33.4936 645.958 37.7736 645.958 43.3202C645.958 54.9202 650.465 60.7202 659.478 60.7202C665.345 60.7202 669.838 58.5869 672.958 54.3202L674.438 55.2402C673.052 58.9202 670.798 61.7736 667.678 63.8002C664.585 65.8269 660.932 66.8402 656.718 66.8402Z" fill="#451914"/>
<path d="M608.745 86.6002C605.838 86.6002 603.545 85.9869 601.865 84.7602C600.158 83.5602 599.305 81.9336 599.305 79.8802C599.305 78.3869 599.705 77.2136 600.505 76.3602C601.305 75.5336 602.371 75.1202 603.705 75.1202C604.878 75.1202 605.811 75.4136 606.505 76.0002C607.171 76.6136 607.731 77.5469 608.185 78.8002C608.798 80.3469 609.398 81.4002 609.985 81.9602C610.545 82.5202 611.318 82.8002 612.305 82.8002C614.518 82.8002 616.145 81.7202 617.185 79.5602C618.251 77.4269 618.785 74.1602 618.785 69.7602V30.4002L612.825 28.2802V27.0402L626.145 23.2402H626.905V54.6402C626.905 58.2936 626.865 61.3069 626.785 63.6802C626.731 66.0269 626.611 67.9602 626.425 69.4802C626.238 71.0002 625.958 72.2936 625.585 73.3602C625.238 74.4269 624.771 75.4936 624.185 76.5602C622.398 79.8136 620.185 82.2936 617.545 84.0002C614.931 85.7336 611.998 86.6002 608.745 86.6002ZM622.825 14.8402C621.198 14.8402 619.905 14.3336 618.945 13.3202C618.011 12.3069 617.545 11.0402 617.545 9.52023C617.545 8.0269 618.025 6.77357 618.985 5.76023C619.945 4.7469 621.225 4.24023 622.825 4.24023C624.398 4.24023 625.691 4.7469 626.705 5.76023C627.718 6.77357 628.225 8.0269 628.225 9.52023C628.225 11.0402 627.731 12.3069 626.745 13.3202C625.758 14.3336 624.451 14.8402 622.825 14.8402Z" fill="#451914"/>
<path d="M586.441 66.8402C582.335 66.8402 578.695 65.8936 575.521 64.0002C572.348 62.0802 569.855 59.4802 568.041 56.2002C566.255 52.8936 565.361 49.1736 565.361 45.0402C565.361 40.8802 566.255 37.1602 568.041 33.8802C569.855 30.6002 572.348 28.0136 575.521 26.1202C578.695 24.2002 582.335 23.2402 586.441 23.2402C590.548 23.2402 594.175 24.2002 597.321 26.1202C600.495 28.0136 602.988 30.6002 604.801 33.8802C606.615 37.1602 607.521 40.8802 607.521 45.0402C607.521 49.1736 606.615 52.8936 604.801 56.2002C602.988 59.4802 600.495 62.0802 597.321 64.0002C594.175 65.8936 590.548 66.8402 586.441 66.8402ZM586.361 63.1602C588.308 63.1602 590.028 62.7336 591.521 61.8802C593.015 61.0002 594.268 59.7602 595.281 58.1602C596.321 56.5336 597.108 54.6136 597.641 52.4002C598.175 50.1602 598.441 47.6802 598.441 44.9602C598.441 42.2669 598.175 39.8136 597.641 37.6002C597.135 35.3869 596.375 33.4802 595.361 31.8802C594.348 30.2802 593.095 29.0536 591.601 28.2002C590.108 27.3202 588.388 26.8802 586.441 26.8802C584.495 26.8802 582.775 27.3202 581.281 28.2002C579.788 29.0536 578.535 30.2802 577.521 31.8802C576.508 33.4802 575.735 35.4002 575.201 37.6402C574.695 39.8536 574.441 42.3202 574.441 45.0402C574.441 47.7602 574.695 50.2269 575.201 52.4402C575.735 54.6536 576.508 56.5602 577.521 58.1602C578.535 59.7602 579.775 61.0002 581.241 61.8802C582.735 62.7336 584.441 63.1602 586.361 63.1602Z" fill="#451914"/>
<path d="M531.746 66.0002V64.2402L537.746 63.0002V30.4002L531.906 28.2002V27.0402L544.706 23.2002H545.586V31.8402L545.906 32.2402V63.0002L554.146 64.2402V66.0002H531.746ZM545.306 35.5202L545.146 32.2402C547.119 29.3335 549.079 27.0935 551.026 25.5202C552.999 23.9468 554.839 23.1602 556.546 23.1602C558.013 23.1602 559.253 23.6668 560.266 24.6802C561.279 25.6668 561.786 26.8668 561.786 28.2802C561.786 29.5868 561.346 30.6935 560.466 31.6002C559.586 32.4802 558.493 32.9202 557.186 32.9202C555.853 32.9202 554.813 32.4268 554.066 31.4402C553.533 30.8268 553.079 30.4135 552.706 30.2002C552.333 29.9602 551.906 29.8402 551.426 29.8402C550.653 29.8402 549.679 30.3602 548.506 31.4002C547.359 32.4135 546.293 33.7868 545.306 35.5202Z" fill="#451914"/>
<path d="M480.213 66.0001V64.0801L487.013 62.4801V8.56008L480.213 7.00008V5.08008H505.133C509.346 5.08008 513.066 5.78675 516.293 7.20008C519.52 8.58675 522.04 10.6267 523.853 13.3201C525.666 15.9868 526.573 19.2667 526.573 23.1601C526.573 28.6001 524.546 32.7601 520.493 35.6401C516.44 38.5201 510.906 39.9601 503.893 39.9601H496.013V62.4801L505.133 64.0801V66.0001H480.213ZM496.013 36.7601H501.253C504.453 36.7601 507 36.4001 508.893 35.6801C510.813 34.9334 512.346 33.9067 513.493 32.6001C514.693 31.2401 515.52 29.6934 515.973 27.9601C516.453 26.2001 516.693 24.3467 516.693 22.4001C516.693 19.1201 516.106 16.3867 514.933 14.2001C513.76 12.0134 512.106 10.4534 509.973 9.52008C508.346 8.72008 505.893 8.32008 502.613 8.32008H496.013V36.7601Z" fill="#451914"/>
<path d="M383.111 66.0002V64.2402L389.071 63.0002V30.4802L383.191 28.2802V27.1202L395.831 23.2402H396.871V30.1602L397.271 30.5602V63.0002L403.151 64.2402V66.0002H383.111ZM408.391 66.0002V64.2402L414.311 63.0802V38.6402C414.311 34.8536 413.711 32.1336 412.511 30.4802C411.338 28.8002 409.445 27.9602 406.831 27.9602C404.805 27.9602 402.871 28.4669 401.031 29.4802C399.218 30.4669 397.631 31.8936 396.271 33.7602V30.4002C398.511 28.1336 400.978 26.3736 403.671 25.1202C406.391 23.8669 409.058 23.2402 411.671 23.2402C415.325 23.2402 418.031 24.2002 419.791 26.1202C421.551 28.0136 422.431 30.9736 422.431 35.0002V63.0802L428.351 64.2402V66.0002H408.391ZM433.591 66.0002V64.2402L439.471 63.0802V38.4002C439.471 34.6136 438.898 31.9336 437.751 30.3602C436.631 28.7602 434.725 27.9602 432.031 27.9602C429.871 27.9602 427.898 28.4669 426.111 29.4802C424.351 30.4669 422.805 31.8936 421.471 33.7602V30.4002C423.525 28.0269 425.938 26.2402 428.711 25.0402C431.485 23.8402 434.285 23.2402 437.111 23.2402C440.685 23.2402 443.298 24.2136 444.951 26.1602C446.605 28.1069 447.485 31.1736 447.591 35.3602V63.0802L453.511 64.2402V66.0002H433.591Z" fill="#451914"/>
<path d="M356.129 66.8402C352.022 66.8402 348.382 65.8936 345.209 64.0002C342.035 62.0802 339.542 59.4802 337.729 56.2002C335.942 52.8936 335.049 49.1736 335.049 45.0402C335.049 40.8802 335.942 37.1602 337.729 33.8802C339.542 30.6002 342.035 28.0136 345.209 26.1202C348.382 24.2002 352.022 23.2402 356.129 23.2402C360.235 23.2402 363.862 24.2002 367.009 26.1202C370.182 28.0136 372.675 30.6002 374.489 33.8802C376.302 37.1602 377.209 40.8802 377.209 45.0402C377.209 49.1736 376.302 52.8936 374.489 56.2002C372.675 59.4802 370.182 62.0802 367.009 64.0002C363.862 65.8936 360.235 66.8402 356.129 66.8402ZM356.049 63.1602C357.995 63.1602 359.715 62.7336 361.209 61.8802C362.702 61.0002 363.956 59.7602 364.969 58.1602C366.009 56.5336 366.795 54.6136 367.329 52.4002C367.862 50.1602 368.129 47.6802 368.129 44.9602C368.129 42.2669 367.862 39.8136 367.329 37.6002C366.822 35.3869 366.062 33.4802 365.049 31.8802C364.035 30.2802 362.782 29.0536 361.289 28.2002C359.795 27.3202 358.075 26.8802 356.129 26.8802C354.182 26.8802 352.462 27.3202 350.969 28.2002C349.476 29.0536 348.222 30.2802 347.209 31.8802C346.195 33.4802 345.422 35.4002 344.889 37.6402C344.382 39.8536 344.129 42.3202 344.129 45.0402C344.129 47.7602 344.382 50.2269 344.889 52.4402C345.422 54.6536 346.195 56.5602 347.209 58.1602C348.222 59.7602 349.462 61.0002 350.929 61.8802C352.422 62.7336 354.129 63.1602 356.049 63.1602Z" fill="#451914"/>
<path d="M303.1 66.8403C299.953 66.8403 297.127 65.9203 294.62 64.0803C292.113 62.2403 290.127 59.7336 288.66 56.5603C287.22 53.3603 286.5 49.7469 286.5 45.7203C286.5 41.2936 287.38 37.4003 289.14 34.0403C290.9 30.6536 293.353 28.0136 296.5 26.1203C299.647 24.2003 303.287 23.2403 307.42 23.2403C310.353 23.2403 313.233 23.6803 316.06 24.5603V7.56028L310.14 5.28027V4.16027L323.22 0.280273H324.14V59.6403L329.62 60.8803V61.8403L317.26 66.8403H316.62V60.2403L316.26 60.1203C314.607 62.3336 312.647 64.0136 310.38 65.1603C308.14 66.2803 305.713 66.8403 303.1 66.8403ZM306.62 61.5603C308.593 61.5603 310.42 61.1469 312.1 60.3203C313.807 59.4936 315.127 58.3736 316.06 56.9603V34.7203C316.06 31.8669 315.313 29.6803 313.82 28.1603C312.353 26.6403 310.233 25.8803 307.46 25.8803C303.887 25.8803 300.993 27.5736 298.78 30.9603C296.593 34.3469 295.5 38.8403 295.5 44.4403C295.5 49.7203 296.487 53.8936 298.46 56.9603C300.433 60.0269 303.153 61.5603 306.62 61.5603Z" fill="#451914"/>
<path d="M264.135 66.8402C262.428 66.8402 260.535 66.6669 258.455 66.3202C256.402 66.0002 254.602 65.5869 253.055 65.0802L252.535 52.2402H254.615C254.962 56.1869 255.975 59.1736 257.655 61.2002C259.335 63.2002 261.669 64.2002 264.655 64.2002C266.975 64.2002 268.828 63.5602 270.215 62.2802C271.628 60.9736 272.335 59.2669 272.335 57.1602C272.335 55.4002 271.815 53.8936 270.775 52.6402C269.735 51.3602 267.935 50.0669 265.375 48.7602L262.055 47.1202C258.642 45.4136 256.202 43.6269 254.735 41.7602C253.268 39.8669 252.535 37.5869 252.535 34.9202C252.535 31.1869 253.828 28.3069 256.415 26.2802C259.028 24.2536 262.748 23.2402 267.575 23.2402C269.442 23.2402 271.242 23.3736 272.975 23.6402C274.735 23.8802 276.109 24.2136 277.095 24.6402V35.6002H275.255C274.482 29.0936 271.455 25.8402 266.175 25.8402C264.122 25.8402 262.468 26.4002 261.215 27.5202C259.988 28.6136 259.375 30.1069 259.375 32.0002C259.375 33.6536 259.908 35.0669 260.975 36.2402C262.068 37.4136 263.908 38.6269 266.495 39.8802L270.135 41.6402C273.282 43.1869 275.548 44.8936 276.935 46.7602C278.322 48.6269 279.015 50.9869 279.015 53.8402C279.015 57.8136 277.682 60.9736 275.015 63.3202C272.348 65.6669 268.722 66.8402 264.135 66.8402Z" fill="#451914"/>
<path d="M226.041 66.0002V64.2402L232.121 63.0002V30.4002L226.161 28.2802V27.0402L239.441 23.2402H240.321V63.0002L246.321 64.2402V66.0002H226.041ZM236.161 14.8402C234.534 14.8402 233.241 14.3202 232.281 13.2802C231.321 12.2402 230.841 11.0269 230.841 9.64024C230.841 8.12023 231.321 6.84023 232.281 5.80023C233.241 4.76023 234.534 4.24023 236.161 4.24023C237.814 4.24023 239.121 4.76023 240.081 5.80023C241.068 6.84023 241.561 8.12023 241.561 9.64024C241.561 11.0269 241.068 12.2402 240.081 13.2802C239.121 14.3202 237.814 14.8402 236.161 14.8402Z" fill="#451914"/>
<path d="M163.982 66.8401L143.222 11.8401C142.768 10.6401 142.262 9.72008 141.702 9.08008C141.168 8.41341 140.395 7.93341 139.382 7.64008C138.368 7.34675 136.942 7.13342 135.102 7.00008V5.08008H161.702V7.00008C158.742 7.21341 156.648 7.45341 155.422 7.72008C154.195 7.96008 153.555 8.44008 153.502 9.16008C153.475 9.88008 153.742 11.0534 154.302 12.6801L167.462 50.7601H167.822L177.542 20.3201L174.422 11.8401C173.968 10.6401 173.462 9.72008 172.902 9.08008C172.342 8.41341 171.555 7.93341 170.542 7.64008C169.555 7.34675 168.128 7.13342 166.262 7.00008V5.08008H192.902V7.00008C190.048 7.18675 187.995 7.42675 186.742 7.72008C185.515 7.98675 184.875 8.52008 184.822 9.32008C184.768 10.0934 185.048 11.3334 185.662 13.0401L198.662 50.7601L198.102 50.4801L210.222 15.6401C210.888 13.7468 211.115 12.2401 210.902 11.1201C210.688 9.97341 209.942 9.09341 208.662 8.48008C207.382 7.86675 205.435 7.37342 202.822 7.00008V5.08008H225.422V7.00008C222.702 7.40008 220.622 7.92008 219.182 8.56008C217.768 9.17341 216.702 10.0534 215.982 11.2001C215.262 12.3201 214.582 13.8534 213.942 15.8001L197.222 66.8401H195.102L179.582 25.5601L165.982 66.8401H163.982Z" fill="#451914"/>
<path d="M85.5477 86.6C83.4943 86.6 81.8277 86.0934 80.5477 85.08C79.2677 84.0934 78.6277 82.7734 78.6277 81.12C78.6277 79.8134 79.041 78.7734 79.8677 78C80.721 77.2267 81.8277 76.84 83.1877 76.84C84.2543 76.84 85.0943 77.12 85.7077 77.68C86.321 78.2667 86.761 79.2267 87.0277 80.56C87.1877 81.5734 87.3743 82.2267 87.5877 82.52C87.8277 82.84 88.2277 83 88.7877 83C89.641 83 90.441 82.4934 91.1877 81.48C91.961 80.4934 92.721 78.8667 93.4677 76.6L96.7077 66.84L81.0677 28.96C80.5877 27.9734 79.921 27.24 79.0677 26.76C78.2143 26.28 76.9743 25.96 75.3477 25.8V24.04H95.7877V25.8C93.9477 25.9067 92.6277 26.0667 91.8277 26.28C91.0277 26.4667 90.601 26.8134 90.5477 27.32C90.4943 27.8267 90.6543 28.6267 91.0277 29.72L100.668 54.36H101.028L108.548 32C109.321 29.8934 109.281 28.3734 108.428 27.44C107.601 26.48 105.788 25.9334 102.988 25.8V24.04H120.948V25.8C118.948 26.12 117.388 26.5067 116.268 26.96C115.174 27.3867 114.334 28 113.748 28.8C113.161 29.5734 112.614 30.6667 112.108 32.08L96.3077 77.16C95.7477 78.84 95.1343 80.2267 94.4677 81.32C93.801 82.44 93.121 83.32 92.4277 83.96C90.721 85.72 88.4277 86.6 85.5477 86.6Z" fill="#451914"/>
<path d="M33.3995 66.8401L11.3995 14.1201H11.0795V62.4801L18.1595 64.0801V66.0001H0.519531V64.0801L7.63953 62.4801V8.52008L0.519531 7.00008V5.08008H18.1595L37.3995 51.1601H37.7995L57.1595 5.08008H74.2395V7.00008L67.2395 8.52008V62.4801L74.2395 64.0801V66.0001H51.1195V64.0801L58.1995 62.4801V14.6801H57.8795L35.7995 66.8401H33.3995Z" fill="#451914"/>
</svg>
