<svg width="140" height="62" viewBox="0 0 140 62" fill="none" xmlns="http://www.w3.org/2000/svg">
<path d="M89.4975 60.92V58L96.2575 56.24V4.56001L89.4975 2.88V0H115.897C120.644 0 124.751 0.733336 128.217 2.2C131.684 3.66667 134.364 5.74667 136.257 8.44C138.151 11.1067 139.097 14.2933 139.097 18C139.097 23.6 136.964 27.9333 132.698 31C128.431 34.0667 122.391 35.6 114.577 35.6H109.857V56.24L119.737 58V60.92H89.4975ZM109.857 31.32H110.417C112.871 31.32 114.964 31.0533 116.698 30.52C118.431 29.9867 119.897 29.1733 121.097 28.08C122.351 26.9067 123.257 25.4667 123.817 23.76C124.377 22.0267 124.657 19.88 124.657 17.32C124.657 14.8933 124.404 12.8267 123.897 11.12C123.391 9.41334 122.644 8.06667 121.657 7.08C119.791 5.21334 116.511 4.28001 111.817 4.28001H109.857V31.32Z" fill="#451914"/>
<path d="M29.64 61.76L8.52 7.72001C8.04 6.52 7.49333 5.6 6.88 4.96C6.29333 4.32 5.46667 3.85334 4.4 3.56001C3.33333 3.24 1.86667 3.01333 0 2.88V0H32.6V2.88C30.04 3.06667 28.16 3.30667 26.96 3.6C25.7867 3.89334 25.1067 4.38667 24.92 5.08001C24.7333 5.77334 24.8533 6.81333 25.28 8.2L35.92 40.8H36.4L46.44 14.6L43.76 7.72001C43.28 6.52 42.7333 5.6 42.12 4.96C41.5067 4.32 40.6667 3.85334 39.6 3.56001C38.5333 3.24 37.0667 3.01333 35.2 2.88V0H67.8V2.88C65.3733 2.98667 63.5467 3.21334 62.32 3.56001C61.12 3.90667 60.4 4.44 60.16 5.16C59.92 5.88 60.04 6.89334 60.52 8.2L71.16 40.8L72.12 40.96L82.84 11.56C83.56 9.61334 83.8133 8.08 83.6 6.96C83.3867 5.81334 82.5867 4.93334 81.2 4.32C79.8133 3.70667 77.7067 3.22667 74.88 2.88V0H99.36V2.88C97.0667 3.22667 95.2533 3.68 93.92 4.24C92.5867 4.8 91.5067 5.65334 90.68 6.8C89.88 7.92 89.0667 9.54667 88.24 11.68L68.72 61.76H64.88L49.16 21.6L33.44 61.76H29.64Z" fill="#451914"/>
</svg>
